<svg xmlns="http://www.w3.org/2000/svg" width="192" viewBox="0 0 369 75" height="40" version="1.2"><defs><clipPath id="a"><path d="M0 0h363v38H0z"/></clipPath><clipPath id="b"><path d="M0 0h229v23H0z"/></clipPath></defs><g clip-path="url(#a)" transform="translate(6 6)"><g style="fill:#fff;fill-opacity:1"><path style="stroke:none" d="m15.797 0-4.031-5.828H7.312V0H2.484v-20.906h9.047c1.852 0 3.461.308 4.828.922 1.364.617 2.41 1.492 3.141 2.625.738 1.136 1.11 2.48 1.11 4.03 0 1.556-.376 2.892-1.126 4.017-.742 1.124-1.797 1.992-3.172 2.593L21 0Zm-.078-13.328c0-1.176-.383-2.078-1.14-2.703-.763-.625-1.868-.938-3.313-.938H7.312v7.297h3.954c1.445 0 2.55-.316 3.312-.953.758-.645 1.14-1.547 1.14-2.703Zm0 0" transform="translate(.75 29.157)"/></g><g style="fill:#fff;fill-opacity:1"><path style="stroke:none" d="M9.797.234c-1.688 0-3.211-.347-4.563-1.046C3.891-1.52 2.836-2.5 2.078-3.75 1.328-5.008.953-6.438.953-8.031c0-1.594.375-3.016 1.125-4.266.758-1.258 1.813-2.242 3.156-2.953 1.352-.707 2.875-1.063 4.563-1.063 1.695 0 3.21.356 4.547 1.063 1.332.71 2.375 1.695 3.125 2.953.758 1.25 1.14 2.672 1.14 4.266 0 1.594-.382 3.023-1.14 4.281-.75 1.25-1.793 2.23-3.125 2.938C13.008-.114 11.492.234 9.797.234Zm0-3.812c1.195 0 2.176-.399 2.937-1.203.77-.813 1.157-1.895 1.157-3.25 0-1.352-.387-2.43-1.157-3.235-.761-.812-1.742-1.218-2.937-1.218-1.2 0-2.188.406-2.969 1.218-.773.805-1.156 1.883-1.156 3.235 0 1.355.383 2.437 1.156 3.25.781.804 1.77 1.203 2.969 1.203Zm0 0" transform="translate(22.7 29.157)"/></g><g style="fill:#fff;fill-opacity:1"><path style="stroke:none" d="M18.344-16.078V0h-4.422v-1.906a6.052 6.052 0 0 1-2.219 1.593 7.003 7.003 0 0 1-2.765.547c-2.118 0-3.793-.601-5.032-1.812-1.23-1.219-1.844-3.02-1.844-5.406v-9.094H6.72v8.406c0 2.586 1.086 3.875 3.265 3.875 1.114 0 2.008-.36 2.688-1.078.676-.727 1.015-1.813 1.015-3.25v-7.953Zm0 0" transform="translate(42.262 29.157)"/></g><g style="fill:#fff;fill-opacity:1"><path style="stroke:none" d="M12.516-.781c-.461.344-1.024.601-1.688.765a8.814 8.814 0 0 1-2.11.25c-1.905 0-3.386-.484-4.437-1.453C3.238-2.195 2.72-3.633 2.72-5.53v-6.594H.234v-3.594H2.72v-3.906h4.656v3.906h4v3.594h-4v6.531c0 .68.172 1.203.516 1.578.351.368.847.547 1.484.547.738 0 1.367-.195 1.89-.594Zm0 0" transform="translate(62.778 29.157)"/></g><g style="fill:#fff;fill-opacity:1"><path style="stroke:none" d="M17.89-7.984c0 .062-.027.484-.078 1.265H5.642c.218.992.734 1.778 1.546 2.36.82.574 1.844.859 3.063.859.832 0 1.57-.125 2.219-.375a5.58 5.58 0 0 0 1.812-1.172l2.485 2.688C15.242-.63 13.03.234 10.125.234c-1.813 0-3.418-.347-4.813-1.046C3.915-1.52 2.837-2.5 2.079-3.75 1.328-5.008.953-6.438.953-8.031c0-1.57.375-2.989 1.125-4.25a7.892 7.892 0 0 1 3.078-2.969c1.301-.707 2.758-1.063 4.375-1.063 1.57 0 2.992.34 4.266 1.016a7.325 7.325 0 0 1 3 2.922c.726 1.262 1.094 2.727 1.094 4.39Zm-8.328-4.797c-1.054 0-1.937.297-2.656.89-.718.594-1.156 1.414-1.312 2.454H13.5c-.156-1.02-.594-1.833-1.313-2.438-.718-.602-1.593-.906-2.624-.906Zm0 0" transform="translate(75.262 29.157)"/></g><g style="fill:#fff;fill-opacity:1"><path style="stroke:none" d="M11.531-20.906c1.852 0 3.461.308 4.828.922 1.364.617 2.41 1.492 3.141 2.625.738 1.136 1.11 2.48 1.11 4.03 0 1.532-.372 2.872-1.11 4.017-.73 1.148-1.777 2.027-3.14 2.64-1.368.606-2.977.906-4.829.906H7.312V0H2.484v-20.906Zm-.265 11.203c1.445 0 2.55-.313 3.312-.938.758-.632 1.14-1.53 1.14-2.687 0-1.176-.382-2.078-1.14-2.703-.762-.625-1.867-.938-3.312-.938H7.312v7.266Zm0 0" transform="translate(102.558 29.157)"/></g><g style="fill:#fff;fill-opacity:1"><path style="stroke:none" d="M2.156-22.172h4.656V0H2.157Zm0 0" transform="translate(124.418 29.157)"/></g><g style="fill:#fff;fill-opacity:1"><path style="stroke:none" d="M8.64-16.313c2.489 0 4.4.594 5.735 1.782 1.332 1.187 2 2.976 2 5.36V0h-4.36v-2C11.13-.508 9.493.234 7.11.234c-1.23 0-2.296-.21-3.203-.625C3-.805 2.305-1.379 1.828-2.109c-.48-.739-.719-1.579-.719-2.516 0-1.5.563-2.676 1.688-3.531C3.922-9.008 5.657-9.437 8-9.437h3.719c0-1.02-.313-1.801-.938-2.344-.617-.551-1.543-.828-2.781-.828-.855 0-1.695.136-2.516.406-.824.273-1.527.637-2.109 1.094l-1.672-3.266c.875-.613 1.922-1.086 3.14-1.422a14.003 14.003 0 0 1 3.798-.515ZM8.282-2.89c.79 0 1.492-.18 2.11-.546.625-.376 1.066-.922 1.328-1.641v-1.64H8.516c-1.918 0-2.875.624-2.875 1.874 0 .606.234 1.086.703 1.438.468.344 1.113.515 1.937.515Zm0 0" transform="translate(133.408 29.157)"/></g><g style="fill:#fff;fill-opacity:1"><path style="stroke:none" d="M11.922-16.313c1.988 0 3.594.602 4.812 1.797 1.227 1.188 1.844 2.961 1.844 5.313V0h-4.656v-8.484c0-1.27-.281-2.22-.844-2.844-.555-.633-1.355-.953-2.406-.953-1.18 0-2.117.367-2.813 1.094-.699.73-1.046 1.808-1.046 3.234V0H2.155v-16.078H6.61v1.89c.614-.675 1.38-1.195 2.297-1.562.914-.375 1.922-.563 3.016-.563Zm0 0" transform="translate(151.834 29.157)"/></g><g style="fill:#fff;fill-opacity:1"><path style="stroke:none" d="M11.922-16.313c1.988 0 3.594.602 4.812 1.797 1.227 1.188 1.844 2.961 1.844 5.313V0h-4.656v-8.484c0-1.27-.281-2.22-.844-2.844-.555-.633-1.355-.953-2.406-.953-1.18 0-2.117.367-2.813 1.094-.699.73-1.046 1.808-1.046 3.234V0H2.155v-16.078H6.61v1.89c.614-.675 1.38-1.195 2.297-1.562.914-.375 1.922-.563 3.016-.563Zm0 0" transform="translate(172.47 29.157)"/></g><g style="fill:#fff;fill-opacity:1"><path style="stroke:none" d="M17.89-7.984c0 .062-.027.484-.078 1.265H5.642c.218.992.734 1.778 1.546 2.36.82.574 1.844.859 3.063.859.832 0 1.57-.125 2.219-.375a5.58 5.58 0 0 0 1.812-1.172l2.485 2.688C15.242-.63 13.03.234 10.125.234c-1.813 0-3.418-.347-4.813-1.046C3.915-1.52 2.837-2.5 2.079-3.75 1.328-5.008.953-6.438.953-8.031c0-1.57.375-2.989 1.125-4.25a7.892 7.892 0 0 1 3.078-2.969c1.301-.707 2.758-1.063 4.375-1.063 1.57 0 2.992.34 4.266 1.016a7.325 7.325 0 0 1 3 2.922c.726 1.262 1.094 2.727 1.094 4.39Zm-8.328-4.797c-1.054 0-1.937.297-2.656.89-.718.594-1.156 1.414-1.312 2.454H13.5c-.156-1.02-.594-1.833-1.313-2.438-.718-.602-1.593-.906-2.624-.906Zm0 0" transform="translate(193.286 29.157)"/></g><g style="fill:#fff;fill-opacity:1"><path style="stroke:none" d="M6.61-13.953c.55-.77 1.3-1.352 2.25-1.75.945-.406 2.035-.61 3.265-.61v4.297c-.512-.03-.86-.046-1.047-.046-1.336 0-2.383.374-3.14 1.124-.75.743-1.125 1.856-1.125 3.344V0H2.155v-16.078H6.61Zm0 0" transform="translate(212.13 29.157)"/></g><g style="fill:#fff;fill-opacity:1"><path style="stroke:none" d="M2.484-22.172H6.75V5.797H2.484Zm0 0" transform="translate(233.453 29.157)"/></g><g style="fill:#fff;fill-opacity:1"><path style="stroke:none" d="M34.094-20.906 27.25 0h-5.203l-4.594-14.156L12.703 0H7.531L.656-20.906h5.016L10.39-6.22l4.937-14.687h4.485l4.78 14.812 4.86-14.812Zm0 0" transform="translate(251.133 29.157)"/></g><g style="fill:#fff;fill-opacity:1"><path style="stroke:none" d="M6.813-16.969H.125v-3.937h18.219v3.937h-6.688V0H6.812Zm0 0" transform="translate(285.477 29.157)"/></g><g style="fill:#fff;fill-opacity:1"><path style="stroke:none" d="m21.516 0-.032-12.547-6.156 10.344h-2.187L7.016-12.281V0H2.484v-20.906h4l7.829 12.984 7.703-12.984h3.968L26.047 0Zm0 0" transform="translate(303.933 29.157)"/></g><g style="fill:#fff;fill-opacity:1"><path style="stroke:none" d="M16.61-10.781h4.421v8.484c-1.136.856-2.453 1.512-3.953 1.969a15.294 15.294 0 0 1-4.5.687c-2.168 0-4.121-.46-5.86-1.39-1.73-.926-3.09-2.207-4.077-3.844-.98-1.645-1.47-3.504-1.47-5.578 0-2.07.49-3.93 1.47-5.578.988-1.645 2.359-2.926 4.109-3.844 1.75-.926 3.723-1.39 5.922-1.39 1.832 0 3.492.308 4.984.921 1.489.617 2.742 1.512 3.766 2.688l-3.11 2.875c-1.492-1.57-3.292-2.36-5.406-2.36-1.336 0-2.523.282-3.562.844a6.016 6.016 0 0 0-2.422 2.36c-.574 1.011-.86 2.171-.86 3.484 0 1.293.286 2.45.86 3.469A6.22 6.22 0 0 0 9.328-4.61c1.031.562 2.203.843 3.516.843 1.394 0 2.648-.296 3.765-.89Zm0 0" transform="translate(332.454 29.157)"/></g></g><g clip-path="url(#b)" transform="translate(139 43)"><g style="fill:#fff;fill-opacity:1"><path style="stroke:none" d="M1.61 0v-13.297h4.5c1.038 0 1.89.188 2.546.563.664.375 1.16.882 1.485 1.515a4.66 4.66 0 0 1 .484 2.125 4.78 4.78 0 0 1-.484 2.156c-.313.637-.805 1.141-1.47 1.516-.655.375-1.507.563-2.546.563H2.906v-1.422h3.172c.707 0 1.281-.125 1.719-.375.437-.25.75-.582.937-1 .196-.426.297-.907.297-1.438 0-.531-.101-1.004-.297-1.422-.187-.414-.5-.742-.937-.984-.438-.25-1.024-.375-1.75-.375H3.219V0Zm0 0" transform="translate(.913 17.587)"/></g><g style="fill:#fff;fill-opacity:1"><path style="stroke:none" d="M5.453.203c-.898 0-1.683-.21-2.36-.64-.679-.426-1.21-1.024-1.593-1.797-.375-.77-.563-1.672-.563-2.704 0-1.03.188-1.93.563-2.703.383-.78.914-1.382 1.594-1.812.676-.426 1.46-.64 2.36-.64.894 0 1.679.214 2.359.64.675.43 1.203 1.031 1.578 1.812.382.774.578 1.672.578 2.704 0 1.03-.196 1.933-.578 2.703-.375.773-.903 1.37-1.579 1.796-.68.43-1.464.641-2.359.641Zm0-1.375c.688 0 1.25-.172 1.688-.516.437-.351.757-.816.968-1.39.22-.57.329-1.192.329-1.86 0-.664-.11-1.285-.329-1.859-.21-.57-.53-1.035-.968-1.39-.438-.352-1-.532-1.688-.532-.687 0-1.25.18-1.687.531-.438.356-.766.82-.985 1.391a5.355 5.355 0 0 0-.312 1.86c0 .667.101 1.289.312 1.859.219.574.547 1.039.985 1.39.437.344 1 .516 1.687.516Zm0 0" transform="translate(12.413 17.587)"/></g><g style="fill:#fff;fill-opacity:1"><path style="stroke:none" d="M3.656 0 .625-9.969h1.61L4.39-2.344H4.5l2.125-7.625H8.25l2.11 7.61h.109l2.156-7.61h1.61L11.187 0h-1.5L7.5-7.656h-.156L5.172 0Zm0 0" transform="translate(22.978 17.587)"/></g><g style="fill:#fff;fill-opacity:1"><path style="stroke:none" d="M5.578.203c-.96 0-1.789-.21-2.484-.64A4.253 4.253 0 0 1 1.5-2.22c-.375-.77-.563-1.664-.563-2.687 0-1.02.188-1.922.563-2.703.375-.782.895-1.391 1.563-1.829.675-.437 1.46-.656 2.359-.656.52 0 1.031.09 1.531.266A3.83 3.83 0 0 1 8.343-9c.415.387.75.898 1 1.531.25.637.376 1.422.376 2.36v.64H2.03v-1.328h6.125c0-.562-.117-1.062-.344-1.5a2.494 2.494 0 0 0-.937-1.031c-.406-.258-.89-.39-1.453-.39-.606 0-1.133.152-1.578.452a2.93 2.93 0 0 0-1.016 1.172c-.242.48-.36.992-.36 1.532v.89c0 .75.13 1.387.391 1.906.258.524.625.918 1.094 1.188.469.273 1.008.406 1.625.406.406 0 .77-.055 1.094-.172.332-.113.613-.285.844-.515a2.35 2.35 0 0 0 .562-.875l1.485.421c-.157.5-.422.946-.797 1.329a3.76 3.76 0 0 1-1.36.875 5.098 5.098 0 0 1-1.828.312Zm0 0" transform="translate(37.49 17.587)"/></g><g style="fill:#fff;fill-opacity:1"><path style="stroke:none" d="M1.406 0v-9.969h1.469v1.5h.11c.187-.488.515-.883.984-1.187a2.876 2.876 0 0 1 1.61-.469c.112 0 .253.008.421.016.176 0 .305.007.39.015v1.547a24.006 24.006 0 0 0-.359-.047 3.365 3.365 0 0 0-.578-.047c-.492 0-.922.102-1.297.297-.375.2-.672.477-.89.828a2.252 2.252 0 0 0-.329 1.204V0Zm0 0" transform="translate(48.133 17.587)"/></g><g style="fill:#fff;fill-opacity:1"><path style="stroke:none" d="M5.578.203c-.96 0-1.789-.21-2.484-.64A4.253 4.253 0 0 1 1.5-2.22c-.375-.77-.563-1.664-.563-2.687 0-1.02.188-1.922.563-2.703.375-.782.895-1.391 1.563-1.829.675-.437 1.46-.656 2.359-.656.52 0 1.031.09 1.531.266A3.83 3.83 0 0 1 8.343-9c.415.387.75.898 1 1.531.25.637.376 1.422.376 2.36v.64H2.03v-1.328h6.125c0-.562-.117-1.062-.344-1.5a2.494 2.494 0 0 0-.937-1.031c-.406-.258-.89-.39-1.453-.39-.606 0-1.133.152-1.578.452a2.93 2.93 0 0 0-1.016 1.172c-.242.48-.36.992-.36 1.532v.89c0 .75.13 1.387.391 1.906.258.524.625.918 1.094 1.188.469.273 1.008.406 1.625.406.406 0 .77-.055 1.094-.172.332-.113.613-.285.844-.515a2.35 2.35 0 0 0 .562-.875l1.485.421c-.157.5-.422.946-.797 1.329a3.76 3.76 0 0 1-1.36.875 5.098 5.098 0 0 1-1.828.312Zm0 0" transform="translate(54.622 17.587)"/></g><g style="fill:#fff;fill-opacity:1"><path style="stroke:none" d="M5.172.203c-.836 0-1.57-.207-2.203-.625-.637-.426-1.137-1.023-1.5-1.797-.356-.77-.532-1.68-.532-2.734 0-1.05.176-1.961.532-2.734.363-.77.863-1.364 1.5-1.782.644-.414 1.383-.625 2.219-.625.656 0 1.171.11 1.546.328.375.211.66.45.86.72.207.273.367.491.484.655h.125v-4.906h1.531V0H8.25v-1.531h-.172c-.117.18-.277.406-.484.687-.211.274-.508.516-.89.735-.388.207-.9.312-1.532.312Zm.203-1.375c.613 0 1.129-.16 1.547-.484.426-.32.75-.77.969-1.344.226-.57.343-1.234.343-1.984s-.109-1.399-.328-1.954c-.218-.562-.543-1-.968-1.312-.418-.313-.938-.469-1.563-.469-.648 0-1.188.168-1.625.5-.43.324-.75.774-.969 1.344-.21.563-.312 1.195-.312 1.89 0 .712.11 1.356.328 1.938.219.574.539 1.031.969 1.375.437.336.972.5 1.609.5Zm0 0" transform="translate(65.266 17.587)"/></g><g style="fill:#fff;fill-opacity:1"><path style="stroke:none" d="M1.61 0v-13.297h1.53v4.906h.126c.113-.164.27-.382.468-.656.207-.27.5-.508.875-.719.383-.218.899-.328 1.547-.328.832 0 1.567.211 2.203.625.645.418 1.145 1.012 1.5 1.781.364.774.547 1.684.547 2.735 0 1.055-.183 1.965-.547 2.734-.355.774-.851 1.371-1.484 1.797-.637.418-1.367.625-2.188.625-.648 0-1.164-.105-1.546-.312-.387-.22-.684-.461-.891-.735-.21-.281-.371-.508-.484-.687h-.172V0Zm1.5-4.984c0 .75.109 1.414.328 1.984.226.574.55 1.023.968 1.344.426.324.946.484 1.563.484.644 0 1.18-.164 1.61-.5.425-.344.75-.8.968-1.375a5.465 5.465 0 0 0 .328-1.937c0-.696-.11-1.329-.328-1.891-.211-.57-.527-1.02-.953-1.344-.43-.332-.969-.5-1.625-.5-.625 0-1.153.156-1.578.469-.418.313-.735.75-.954 1.313-.218.554-.328 1.203-.328 1.953Zm0 0" transform="translate(81.75 17.587)"/></g><g style="fill:#fff;fill-opacity:1"><path style="stroke:none" d="M2.39 3.719c-.261 0-.495-.024-.703-.063-.199-.043-.34-.086-.421-.125l.39-1.344c.563.133 1.024.13 1.39-.015.376-.149.704-.594.985-1.344l.282-.781L.624-9.97h1.656l2.75 7.938h.11L7.89-9.97l1.671.016L5.329 1.453c-.2.508-.437.93-.719 1.266a2.76 2.76 0 0 1-.984.75 2.99 2.99 0 0 1-1.234.25Zm0 0" transform="translate(92.73 17.587)"/></g><g style="fill:#fff;fill-opacity:1"><path style="stroke:none" d="M1.61 0v-13.297h4.656c.914 0 1.675.164 2.28.485.602.312 1.052.742 1.345 1.28a3.64 3.64 0 0 1 .437 1.766c0 .575-.101 1.047-.297 1.422-.199.367-.465.656-.797.875a3.498 3.498 0 0 1-1.046.485v.125c.406.03.812.18 1.218.437.414.262.758.637 1.031 1.125.282.48.422 1.07.422 1.766a3.58 3.58 0 0 1-.453 1.797c-.304.53-.781.953-1.437 1.265C8.313-.156 7.457 0 6.406 0Zm1.609-1.422h3.187c1.051 0 1.801-.203 2.25-.61.446-.413.672-.913.672-1.5 0-.445-.117-.863-.344-1.25A2.522 2.522 0 0 0 8-5.702c-.43-.227-.934-.344-1.516-.344H3.22Zm0-6.031h2.984a2.97 2.97 0 0 0 1.313-.281c.394-.196.707-.47.937-.813.227-.344.344-.75.344-1.219 0-.582-.203-1.078-.61-1.484-.406-.414-1.046-.625-1.921-.625H3.219Zm0 0" transform="translate(108.06 17.587)"/></g><g style="fill:#fff;fill-opacity:1"><path style="stroke:none" d="M1.61 0v-13.297h4.5c1.03 0 1.878.18 2.546.531.664.356 1.16.84 1.485 1.454.32.617.484 1.312.484 2.093 0 .781-.164 1.48-.484 2.094-.325.605-.82 1.078-1.485 1.422-.656.344-1.5.516-2.531.516H2.5v-1.454h3.578c.707 0 1.281-.101 1.719-.312.437-.207.75-.504.937-.89.196-.384.297-.845.297-1.376 0-.531-.101-.992-.297-1.39a2.036 2.036 0 0 0-.953-.938c-.437-.219-1.015-.328-1.734-.328H3.219V0Zm6.265-5.969L11.141 0H9.266l-3.22-5.969Zm0 0" transform="translate(119.949 17.587)"/></g><g style="fill:#fff;fill-opacity:1"><path style="stroke:none" d="M5.453.203c-.898 0-1.683-.21-2.36-.64-.679-.426-1.21-1.024-1.593-1.797-.375-.77-.563-1.672-.563-2.704 0-1.03.188-1.93.563-2.703.383-.78.914-1.382 1.594-1.812.676-.426 1.46-.64 2.36-.64.894 0 1.679.214 2.359.64.675.43 1.203 1.031 1.578 1.812.382.774.578 1.672.578 2.704 0 1.03-.196 1.933-.578 2.703-.375.773-.903 1.37-1.579 1.796-.68.43-1.464.641-2.359.641Zm0-1.375c.688 0 1.25-.172 1.688-.516.437-.351.757-.816.968-1.39.22-.57.329-1.192.329-1.86 0-.664-.11-1.285-.329-1.859-.21-.57-.53-1.035-.968-1.39-.438-.352-1-.532-1.688-.532-.687 0-1.25.18-1.687.531-.438.356-.766.82-.985 1.391a5.355 5.355 0 0 0-.312 1.86c0 .667.101 1.289.312 1.859.219.574.547 1.039.985 1.39.437.344 1 .516 1.687.516Zm0 0" transform="translate(131.527 17.587)"/></g><g style="fill:#fff;fill-opacity:1"><path style="stroke:none" d="M7.688-4.078v-5.89h1.53V0h-1.53v-1.688h-.11c-.23.512-.594.946-1.094 1.297-.492.344-1.109.516-1.859.516-.625 0-1.184-.133-1.672-.406-.48-.27-.86-.68-1.14-1.235-.274-.562-.407-1.27-.407-2.125v-6.328h1.532v6.235c0 .718.203 1.296.609 1.734.406.438.926.656 1.562.656.383 0 .774-.097 1.172-.297a2.616 2.616 0 0 0 1-.89c.27-.406.407-.922.407-1.547Zm0 0" transform="translate(142.43 17.587)"/></g><g style="fill:#fff;fill-opacity:1"><path style="stroke:none" d="M5.734-9.969v1.297H.578v-1.297Zm-3.656-2.39H3.61v9.5c0 .437.063.765.188.984.133.21.3.352.5.422.195.074.41.11.64.11.165 0 .301-.009.407-.032l.265-.047.313 1.375c-.106.031-.25.067-.438.11-.187.039-.421.062-.703.062A3.26 3.26 0 0 1 3.5-.141 2.499 2.499 0 0 1 2.484-1c-.273-.383-.406-.863-.406-1.438Zm0 0" transform="translate(153.047 17.587)"/></g><g style="fill:#fff;fill-opacity:1"><path style="stroke:none" d="M5.578.203c-.96 0-1.789-.21-2.484-.64A4.253 4.253 0 0 1 1.5-2.22c-.375-.77-.563-1.664-.563-2.687 0-1.02.188-1.922.563-2.703.375-.782.895-1.391 1.563-1.829.675-.437 1.46-.656 2.359-.656.52 0 1.031.09 1.531.266A3.83 3.83 0 0 1 8.343-9c.415.387.75.898 1 1.531.25.637.376 1.422.376 2.36v.64H2.03v-1.328h6.125c0-.562-.117-1.062-.344-1.5a2.494 2.494 0 0 0-.937-1.031c-.406-.258-.89-.39-1.453-.39-.606 0-1.133.152-1.578.452a2.93 2.93 0 0 0-1.016 1.172c-.242.48-.36.992-.36 1.532v.89c0 .75.13 1.387.391 1.906.258.524.625.918 1.094 1.188.469.273 1.008.406 1.625.406.406 0 .77-.055 1.094-.172.332-.113.613-.285.844-.515a2.35 2.35 0 0 0 .562-.875l1.485.421c-.157.5-.422.946-.797 1.329a3.76 3.76 0 0 1-1.36.875 5.098 5.098 0 0 1-1.828.312Zm0 0" transform="translate(159.589 17.587)"/></g><g style="fill:#fff;fill-opacity:1"><path style="stroke:none" d="M1.406 0v-9.969h1.469v1.5h.11c.187-.488.515-.883.984-1.187a2.876 2.876 0 0 1 1.61-.469c.112 0 .253.008.421.016.176 0 .305.007.39.015v1.547a24.006 24.006 0 0 0-.359-.047 3.365 3.365 0 0 0-.578-.047c-.492 0-.922.102-1.297.297-.375.2-.672.477-.89.828a2.252 2.252 0 0 0-.329 1.204V0Zm0 0" transform="translate(170.232 17.587)"/></g><g style="fill:#fff;fill-opacity:1"><path style="stroke:none" d="M7.11-6.406v1.422H1.296v-1.422Zm0 0" transform="translate(176.306 17.587)"/></g><g style="fill:#fff;fill-opacity:1"><path style="stroke:none" d="M4.031 0 .391-13.297h1.64L4.797-2.469h.14l2.829-10.828h1.812l2.828 10.828h.14l2.782-10.828h1.625L13.328 0h-1.672L8.72-10.594h-.094L5.687 0Zm0 0" transform="translate(183.782 17.587)"/></g><g style="fill:#fff;fill-opacity:1"><path style="stroke:none" d="M5.578.203c-.96 0-1.789-.21-2.484-.64A4.253 4.253 0 0 1 1.5-2.22c-.375-.77-.563-1.664-.563-2.687 0-1.02.188-1.922.563-2.703.375-.782.895-1.391 1.563-1.829.675-.437 1.46-.656 2.359-.656.52 0 1.031.09 1.531.266A3.83 3.83 0 0 1 8.343-9c.415.387.75.898 1 1.531.25.637.376 1.422.376 2.36v.64H2.03v-1.328h6.125c0-.562-.117-1.062-.344-1.5a2.494 2.494 0 0 0-.937-1.031c-.406-.258-.89-.39-1.453-.39-.606 0-1.133.152-1.578.452a2.93 2.93 0 0 0-1.016 1.172c-.242.48-.36.992-.36 1.532v.89c0 .75.13 1.387.391 1.906.258.524.625.918 1.094 1.188.469.273 1.008.406 1.625.406.406 0 .77-.055 1.094-.172.332-.113.613-.285.844-.515a2.35 2.35 0 0 0 .562-.875l1.485.421c-.157.5-.422.946-.797 1.329a3.76 3.76 0 0 1-1.36.875 5.098 5.098 0 0 1-1.828.312Zm0 0" transform="translate(200.187 17.587)"/></g><g style="fill:#fff;fill-opacity:1"><path style="stroke:none" d="M1.61 0v-13.297h1.53v4.906h.126c.113-.164.27-.382.468-.656.207-.27.5-.508.875-.719.383-.218.899-.328 1.547-.328.832 0 1.567.211 2.203.625.645.418 1.145 1.012 1.5 1.781.364.774.547 1.684.547 2.735 0 1.055-.183 1.965-.547 2.734-.355.774-.851 1.371-1.484 1.797-.637.418-1.367.625-2.188.625-.648 0-1.164-.105-1.546-.312-.387-.22-.684-.461-.891-.735-.21-.281-.371-.508-.484-.687h-.172V0Zm1.5-4.984c0 .75.109 1.414.328 1.984.226.574.55 1.023.968 1.344.426.324.946.484 1.563.484.644 0 1.18-.164 1.61-.5.425-.344.75-.8.968-1.375a5.465 5.465 0 0 0 .328-1.937c0-.696-.11-1.329-.328-1.891-.211-.57-.527-1.02-.953-1.344-.43-.332-.969-.5-1.625-.5-.625 0-1.153.156-1.578.469-.418.313-.735.75-.954 1.313-.218.554-.328 1.203-.328 1.953Zm0 0" transform="translate(210.83 17.587)"/></g></g></svg>